<svg width="16" height="16" viewBox="0 0 16 16" fill="none" xmlns="http://www.w3.org/2000/svg">
<circle cx="8" cy="8" r="7.5" fill="white" stroke="#E4E7EC"/>
<path d="M10.7649 9.63056L9.13435 8.0008L10.764 6.37104C11.0774 6.05847 11.0774 5.54975 10.764 5.23718C10.4505 4.92186 9.94367 4.92277 9.63021 5.23626L7.99966 6.86602L6.3691 5.23443C6.05564 4.92094 5.54787 4.92277 5.23441 5.23443C4.92186 5.54791 4.92186 6.05664 5.23441 6.36921L6.86588 8.0008L5.23808 9.62781C4.92461 9.9413 4.92461 10.45 5.23808 10.7617C5.39481 10.9193 5.5992 10.9973 5.80451 10.9973C6.01073 10.9973 6.21512 10.9193 6.37185 10.7626L7.99966 9.13467L9.63112 10.7653C9.78786 10.9221 9.99225 11 10.1976 11C10.4029 11 10.6082 10.9212 10.7649 10.7653C11.0784 10.4519 11.0784 9.94405 10.7649 9.63056Z" fill="black"/>
</svg>
