<svg id="_Resources_Modal_Icon_Error" data-name="_Resources/Modal/Icon/Error" xmlns="http://www.w3.org/2000/svg" width="22" height="22" viewBox="0 0 22 22">
  <g id="Icon_Error" data-name="Icon/Error">
    <path id="Shape" d="M11,22A11,11,0,0,1,3.221,3.221,11,11,0,0,1,18.778,18.778,10.928,10.928,0,0,1,11,22Zm0-10.037h0l4.215,4.13a.688.688,0,1,0,.962-.984L11.982,11l4.2-4.108a.688.688,0,1,0-.962-.984L11,10.038,6.785,5.906a.692.692,0,0,0-.482-.2.684.684,0,0,0-.491.206.694.694,0,0,0,.011.974L10.018,11l-4.2,4.108a.689.689,0,1,0,.963.985L11,11.963Z" fill="#e82037"/>
  </g>
</svg>
