<svg width="10" height="10" viewBox="0 0 10 10" fill="none" xmlns="http://www.w3.org/2000/svg">
<path d="M5.76154 4.99862L9.24513 1.51776C9.45568 1.30721 9.45568 0.966785 9.24513 0.757605C9.03458 0.547058 8.69415 0.547058 8.48497 0.757605L5.00001 4.2371L1.51505 0.756238C1.3045 0.545691 0.964075 0.545691 0.754895 0.756238C0.544348 0.966785 0.544348 1.30721 0.754895 1.51639L4.23849 4.99725L0.754895 8.47948C0.544348 8.69003 0.544348 9.03046 0.754895 9.23964C0.860168 9.34491 0.998254 9.39686 1.13497 9.39686C1.27306 9.39686 1.40978 9.34491 1.51505 9.23964L5.00001 5.75878L8.48497 9.241C8.59025 9.34628 8.72696 9.39823 8.86505 9.39823C9.00314 9.39823 9.13986 9.34628 9.24513 9.241C9.45568 9.03046 9.45568 8.69003 9.24513 8.48085L5.76154 4.99862Z" fill="black" fill-opacity="0.25"/>
<mask id="mask0" mask-type="alpha" maskUnits="userSpaceOnUse" x="0" y="0" width="10" height="10">
<path d="M5.76154 4.99862L9.24513 1.51776C9.45568 1.30721 9.45568 0.966785 9.24513 0.757605C9.03458 0.547058 8.69415 0.547058 8.48497 0.757605L5.00001 4.2371L1.51505 0.756238C1.3045 0.545691 0.964075 0.545691 0.754895 0.756238C0.544348 0.966785 0.544348 1.30721 0.754895 1.51639L4.23849 4.99725L0.754895 8.47948C0.544348 8.69003 0.544348 9.03046 0.754895 9.23964C0.860168 9.34491 0.998254 9.39686 1.13497 9.39686C1.27306 9.39686 1.40978 9.34491 1.51505 9.23964L5.00001 5.75878L8.48497 9.241C8.59025 9.34628 8.72696 9.39823 8.86505 9.39823C9.00314 9.39823 9.13986 9.34628 9.24513 9.241C9.45568 9.03046 9.45568 8.69003 9.24513 8.48085L5.76154 4.99862Z" fill="white"/>
</mask>
<g mask="url(#mask0)">
</g>
</svg>
