<svg width="24" height="24" viewBox="0 0 24 24" fill="none" xmlns="http://www.w3.org/2000/svg">
<path d="M12 2C10.0222 2 8.08879 2.58649 6.4443 3.6853C4.79981 4.78412 3.51809 6.3459 2.76121 8.17316C2.00433 10.0004 1.8063 12.0111 2.19215 13.9509C2.578 15.8907 3.53041 17.6725 4.92894 19.0711C6.32746 20.4696 8.10929 21.422 10.0491 21.8078C11.9889 22.1937 13.9996 21.9957 15.8268 21.2388C17.6541 20.4819 19.2159 19.2002 20.3147 17.5557C21.4135 15.9112 22 13.9778 22 12C21.997 9.34875 20.9425 6.80696 19.0678 4.93225C17.193 3.05753 14.6512 2.003 12 2V2ZM12.0001 18.1539C11.7718 18.1539 11.5488 18.0862 11.359 17.9594C11.1693 17.8326 11.0214 17.6524 10.934 17.4416C10.8467 17.2308 10.8239 16.9988 10.8684 16.7749C10.9129 16.5511 11.0228 16.3455 11.1842 16.1841C11.3455 16.0228 11.5511 15.9129 11.775 15.8684C11.9988 15.8238 12.2308 15.8467 12.4416 15.934C12.6525 16.0213 12.8327 16.1692 12.9594 16.359C13.0862 16.5487 13.1539 16.7718 13.1539 17C13.1539 17.3061 13.0323 17.5995 12.8159 17.8159C12.5996 18.0323 12.3061 18.1539 12.0001 18.1539ZM12.7692 13.4528V13.5389C12.7692 13.7429 12.6882 13.9386 12.5439 14.0829C12.3997 14.2271 12.204 14.3082 12 14.3082C11.796 14.3082 11.6003 14.2271 11.4561 14.0829C11.3118 13.9386 11.2308 13.7429 11.2308 13.5389V12.7697C11.2308 12.5657 11.3118 12.37 11.4561 12.2258C11.6003 12.0815 11.796 12.0005 12 12.0005C12.3804 12.0005 12.7522 11.8877 13.0684 11.6764C13.3847 11.4651 13.6311 11.1647 13.7767 10.8133C13.9223 10.4619 13.9603 10.0753 13.8861 9.70222C13.8119 9.32918 13.6288 8.98652 13.3598 8.71757C13.0909 8.44862 12.7482 8.26547 12.3752 8.19127C12.0021 8.11706 11.6155 8.15515 11.2641 8.3007C10.9127 8.44625 10.6123 8.69274 10.401 9.00899C10.1897 9.32524 10.0769 9.69704 10.0769 10.0774C10.0769 10.2814 9.99589 10.4771 9.85163 10.6213C9.70737 10.7656 9.51171 10.8466 9.3077 10.8466C9.10369 10.8466 8.90803 10.7656 8.76377 10.6213C8.61951 10.4771 8.53847 10.2814 8.53847 10.0774C8.53855 9.42578 8.72256 8.78743 9.06932 8.23574C9.41608 7.68406 9.91151 7.24146 10.4986 6.95884C11.0858 6.67622 11.7407 6.56506 12.3882 6.63814C13.0357 6.71122 13.6495 6.96558 14.1588 7.37197C14.6682 7.77835 15.0525 8.32025 15.2676 8.93535C15.4826 9.55044 15.5197 10.2138 15.3746 10.849C15.2294 11.4842 14.9079 12.0656 14.447 12.5262C13.9861 12.9868 13.4046 13.308 12.7692 13.4528Z" fill="#FA8C16"/>
</svg>
