<svg id="_Resources_Modal_Icon_Success" data-name="_Resources/Modal/Icon/Success" xmlns="http://www.w3.org/2000/svg" width="22" height="22" viewBox="0 0 22 22">
  <g id="Icon_Success" data-name="Icon/Success">
    <path id="Shape" d="M11-22a10.928,10.928,0,0,0-7.778,3.221A10.928,10.928,0,0,0,0-11,10.928,10.928,0,0,0,3.222-3.222,10.928,10.928,0,0,0,11,0a10.928,10.928,0,0,0,7.778-3.222A10.928,10.928,0,0,0,22-11a10.928,10.928,0,0,0-3.221-7.778A10.928,10.928,0,0,0,11-22ZM8.231-6.682h0l8.444-8.208a.686.686,0,0,1,.487-.2.686.686,0,0,1,.487.2.692.692,0,0,1,0,.975L8.717-5.222a.685.685,0,0,1-.487.2.685.685,0,0,1-.487-.2L4.329-8.484a.682.682,0,0,1-.2-.486.684.684,0,0,1,.2-.488.685.685,0,0,1,.487-.2.682.682,0,0,1,.487.2L8.23-6.682Z" transform="translate(0 22)" fill="#34b576"/>
  </g>
</svg>
